{
    "asset": {
        "generator": "COLLADA2GLTF",
        "version": "2.0"
    },
    "scenes": [
        {
            "nodes": [
                0
            ]
        }
    ],
    "scene": 0,
    "nodes": [
        {
            "children": [
                1
            ],
            "name": "Y_UP"
        },
        {
            "mesh": 0,
            "matrix": [
                1.0,
                0.0,
                0.0,
                0.0,
                0.0,
                0.9999240040779114,
                0.012327122502028942,
                0.0,
                0.0,
                -0.012327122502028942,
                0.9999240040779114,
                0.0,
                0.0,
                0.0,
                0.0,
                1.0
            ],
            "name": "base"
        }
    ],
    "meshes": [
        {
            "primitives": [
                {
                    "attributes": {
                        "NORMAL": 1,
                        "POSITION": 2
                    },
                    "indices": 0,
                    "mode": 4,
                    "material": 0
                }
            ],
            "name": "ID17"
        }
    ],
    "accessors": [
        {
            "bufferView": 0,
            "byteOffset": 0,
            "componentType": 5123,
            "count": 7128,
            "max": [
                1287
            ],
            "min": [
                0
            ],
            "type": "SCALAR"
        },
        {
            "bufferView": 1,
            "byteOffset": 0,
            "componentType": 5126,
            "count": 1288,
            "max": [
                1.0,
                1.0,
                1.0
            ],
            "min": [
                -1.0,
                -1.0,
                -1.0
            ],
            "type": "VEC3"
        },
        {
            "bufferView": 1,
            "byteOffset": 15456,
            "componentType": 5126,
            "count": 1288,
            "max": [
                0.5,
                0.21962398290634156,
                0.5
            ],
            "min": [
                -0.5,
                -0.23240597546100617,
                -0.5
            ],
            "type": "VEC3"
        }
    ],
    "materials": [
        {
            "pbrMetallicRoughness": {
                "baseColorFactor": [
                    0.8100000023841858,
                    0.8100000023841858,
                    0.8100000023841858,
                    1.0
                ],
                "metallicFactor": 0.0
            },
            "name": "ID8"
        }
    ],
    "bufferViews": [
        {
            "buffer": 0,
            "byteOffset": 30912,
            "byteLength": 14256,
            "target": 34963
        },
        {
            "buffer": 0,
            "byteOffset": 0,
            "byteLength": 30912,
            "byteStride": 12,
            "target": 34962
        }
    ],
    "buffers": [
        {
            "byteLength": 45168,
            "uri": "data:application/octet-stream;base64,"
        }
    ]
}
