{"accessors":{"accessor":{"bufferView":"bufferView_1","byteOffset":0,"byteStride":0,"componentType":5123,"count":12228,"type":"SCALAR","min":[0],"max":[2249]},"accessor_0":{"bufferView":"bufferView_0","byteOffset":0,"byteStride":0,"componentType":5126,"count":2250,"type":"VEC3","min":[-1,-1,-1],"max":[1,1,1]},"accessor_1":{"bufferView":"bufferView_0","byteOffset":27000,"byteStride":0,"componentType":5126,"count":2250,"type":"VEC3","min":[-0.38058897852897644,-0.0805886909365654,-1.2620325088500977],"max":[0.38058871030807495,0.0805886909365654,0.2630276083946228]}},"animations":{},"asset":{"generator":"collada2gltf@ec3ff192cc7dd54ad5f27c08bf14e37805754a10","premultipliedAlpha":true,"profile":{"api":"WebGL","version":"1.0.2"},"version":"1.0.1"},"bufferViews":{"bufferView_0":{"buffer":"buffer","byteLength":54000,"byteOffset":0,"target":34962},"bufferView_1":{"buffer":"buffer","byteLength":24456,"byteOffset":54000,"target":34963}},"buffers":{"buffer":{"type":"arraybuffer","byteLength":78456,"uri":"data:application/octet-stream;base64,"}},"materials":{"ID2":{"name":"Mat.3","technique":"technique0","values":{"diffuse":[0.8100000023841858,0.8100000023841858,0.8100000023841858,1],"shininess":119.04000091552734,"specular":[0.20000000298023224,0.20000000298023224,0.20000000298023224,1]}}},"meshes":{"rootNode_mesh_0":{"name":"rootNode_mesh","primitives":[{"attributes":{"NORMAL":"accessor_0","POSITION":"accessor_1"},"material":"ID2","mode":4,"indices":"accessor"}]}},"nodes":{"rootNode":{"children":[],"meshes":["rootNode_mesh_0"],"matrix":[1,0,0,0,0,1,0,0,0,0,1,0,0,0,0,1]}},"programs":{"program_0":{"attributes":["a_normal","a_position"],"fragmentShader":"input0FS","vertexShader":"input0VS"}},"scene":"defaultScene","scenes":{"defaultScene":{"nodes":["rootNode"]}},"shaders":{"input0FS":{"type":35632,"uri":"data:text/plain;base64,"},"input0VS":{"type":35633,"uri":"data:text/plain;base64,"}},"skins":{},"techniques":{"technique0":{"attributes":{"a_normal":"normal","a_position":"position"},"parameters":{"diffuse":{"semantic":"_3DTILESDIFFUSE","type":35666},"modelViewMatrix":{"semantic":"MODELVIEW","type":35676},"normal":{"semantic":"NORMAL","type":35665},"normalMatrix":{"semantic":"MODELVIEWINVERSETRANSPOSE","type":35675},"position":{"semantic":"POSITION","type":35665},"projectionMatrix":{"semantic":"PROJECTION","type":35676},"shininess":{"type":5126},"specular":{"type":35666}},"program":"program_0","states":{"enable":[2929,2884]},"uniforms":{"u_diffuse":"diffuse","u_modelViewMatrix":"modelViewMatrix","u_normalMatrix":"normalMatrix","u_projectionMatrix":"projectionMatrix","u_shininess":"shininess","u_specular":"specular"}}},"cameras":{},"images":{},"samplers":{},"textures":{},"extensionsUsed":[]}
