{
    "asset": {
        "generator": "COLLADA2GLTF",
        "version": "2.0"
    },
    "scenes": [
        {
            "nodes": [
                0
            ]
        }
    ],
    "scene": 0,
    "nodes": [
        {
            "children": [
                1
            ],
            "name": "Y_UP"
        },
        {
            "mesh": 0,
            "children": [
                3,
                2
            ],
            "matrix": [
                1.0,
                0.0,
                0.0,
                0.0,
                0.0,
                1.0,
                0.0,
                0.0,
                0.0,
                0.0,
                1.0,
                0.0,
                0.02745470032095909,
                0.0,
                0.04357760027050972,
                1.0
            ],
            "name": "Sweep"
        },
        {
            "mesh": 1,
            "matrix": [
                1.0,
                -8.979318677493353e-11,
                8.979318677493353e-11,
                0.0,
                -8.979318677493353e-11,
                -1.0,
                -1.224727585412953e-16,
                0.0,
                8.979318677493353e-11,
                1.2246468525851679e-16,
                -1.0,
                0.0,
                0.2725449800491333,
                0.0,
                -0.2891559898853302,
                1.0
            ],
            "name": "Cap_2"
        },
        {
            "mesh": 2,
            "matrix": [
                -1.0,
                -8.979318677493353e-11,
                0.0,
                0.0,
                8.979318677493353e-11,
                -1.0,
                0.0,
                0.0,
                0.0,
                0.0,
                1.0,
                0.0,
                -0.32745498418807986,
                0.0,
                0.2194500118494034,
                1.0
            ],
            "name": "Cap_1"
        }
    ],
    "meshes": [
        {
            "primitives": [
                {
                    "attributes": {
                        "NORMAL": 1,
                        "POSITION": 2
                    },
                    "indices": 0,
                    "mode": 4,
                    "material": 0
                }
            ],
            "name": "ID5"
        },
        {
            "primitives": [
                {
                    "attributes": {
                        "NORMAL": 4,
                        "POSITION": 5
                    },
                    "indices": 3,
                    "mode": 4,
                    "material": 1
                }
            ],
            "name": "ID23"
        },
        {
            "primitives": [
                {
                    "attributes": {
                        "NORMAL": 7,
                        "POSITION": 8
                    },
                    "indices": 6,
                    "mode": 4,
                    "material": 2
                }
            ],
            "name": "ID14"
        }
    ],
    "accessors": [
        {
            "bufferView": 0,
            "byteOffset": 0,
            "componentType": 5123,
            "count": 11832,
            "max": [
                2113
            ],
            "min": [
                0
            ],
            "type": "SCALAR"
        },
        {
            "bufferView": 1,
            "byteOffset": 0,
            "componentType": 5126,
            "count": 2114,
            "max": [
                1.0,
                1.0,
                1.0
            ],
            "min": [
                -1.0,
                -1.0,
                -1.0
            ],
            "type": "VEC3"
        },
        {
            "bufferView": 1,
            "byteOffset": 25368,
            "componentType": 5126,
            "count": 2114,
            "max": [
                0.3531340062618256,
                0.0805886909365654,
                0.2194500118494034
            ],
            "min": [
                -0.4080429673194885,
                -0.0805886909365654,
                -1.3056100606918336
            ],
            "type": "VEC3"
        },
        {
            "bufferView": 0,
            "byteOffset": 23664,
            "componentType": 5123,
            "count": 198,
            "max": [
                67
            ],
            "min": [
                0
            ],
            "type": "SCALAR"
        },
        {
            "bufferView": 1,
            "byteOffset": 50736,
            "componentType": 5126,
            "count": 68,
            "max": [
                2.796329985803119e-16,
                4.096949711586808e-15,
                -1.0
            ],
            "min": [
                -1.5148599808909557e-14,
                -6.108189634293623e-15,
                -1.0
            ],
            "type": "VEC3"
        },
        {
            "bufferView": 1,
            "byteOffset": 51552,
            "componentType": 5126,
            "count": 68,
            "max": [
                0.0805886909365654,
                0.0805886909365654,
                3.552709628924222e-17
            ],
            "min": [
                -0.0805886909365654,
                -0.0805886909365654,
                -0.0
            ],
            "type": "VEC3"
        },
        {
            "bufferView": 0,
            "byteOffset": 24060,
            "componentType": 5123,
            "count": 198,
            "max": [
                67
            ],
            "min": [
                0
            ],
            "type": "SCALAR"
        },
        {
            "bufferView": 1,
            "byteOffset": 52368,
            "componentType": 5126,
            "count": 68,
            "max": [
                1.7302999787586696e-16,
                4.5198199837784977e-14,
                1.0
            ],
            "min": [
                -2.0764599349860914e-14,
                -4.55119001838665e-14,
                1.0
            ],
            "type": "VEC3"
        },
        {
            "bufferView": 1,
            "byteOffset": 53184,
            "componentType": 5126,
            "count": 68,
            "max": [
                0.0805886909365654,
                0.0805886909365654,
                -0.0
            ],
            "min": [
                -0.0805886909365654,
                -0.0805886909365654,
                -3.552709628924222e-17
            ],
            "type": "VEC3"
        }
    ],
    "materials": [
        {
            "pbrMetallicRoughness": {
                "baseColorFactor": [
                    0.8100000023841858,
                    0.8100000023841858,
                    0.8100000023841858,
                    1.0
                ],
                "metallicFactor": 0.0
            },
            "name": "ID2"
        },
        {
            "pbrMetallicRoughness": {
                "baseColorFactor": [
                    0.8100000023841858,
                    0.8100000023841858,
                    0.8100000023841858,
                    1.0
                ],
                "metallicFactor": 0.0
            },
            "name": "ID2"
        },
        {
            "pbrMetallicRoughness": {
                "baseColorFactor": [
                    0.8100000023841858,
                    0.8100000023841858,
                    0.8100000023841858,
                    1.0
                ],
                "metallicFactor": 0.0
            },
            "name": "ID2"
        }
    ],
    "bufferViews": [
        {
            "buffer": 0,
            "byteOffset": 54000,
            "byteLength": 24456,
            "target": 34963
        },
        {
            "buffer": 0,
            "byteOffset": 0,
            "byteLength": 54000,
            "byteStride": 12,
            "target": 34962
        }
    ],
    "buffers": [
        {
            "byteLength": 78456,
            "uri": "data:application/octet-stream;base64,"
        }
    ]
}
